<svg xmlns="http://www.w3.org/2000/svg" viewBox="0 0 1000 700" role="img" aria-labelledby="t d">
<title id="t">建設現場を撮影するドローンのイメージ</title><desc id="d">ドローンが建設現場を上空から撮影し、工程の進み具合を記録しているイメージです。</desc>
<defs><linearGradient id="sky" x1="0" y1="0" x2="0" y2="1"><stop offset="0" stop-color="#cfe3f3"/><stop offset="1" stop-color="#eaf3fb"/></linearGradient></defs>
<rect width="1000" height="700" fill="url(#sky)"/>

<rect x="0" y="560" width="1000" height="140" fill="#aebfce"/>
<!-- 建物の骨組み -->
<rect x="300" y="470" width="320" height="10" fill="#4a6b8a"/><rect x="300" y="380" width="320" height="10" fill="#4a6b8a"/><rect x="300" y="290" width="320" height="10" fill="#4a6b8a"/><rect x="300" y="200" width="320" height="10" fill="#4a6b8a"/>
<rect x="300" y="200" width="10" height="360" fill="#34597d"/><rect x="400" y="200" width="10" height="360" fill="#34597d"/><rect x="500" y="200" width="10" height="360" fill="#34597d"/><rect x="610" y="200" width="10" height="360" fill="#34597d"/>
<!-- クレーン -->
<rect x="760" y="140" width="14" height="420" fill="#d9a441"/>
<rect x="560" y="140" width="330" height="12" fill="#d9a441"/>
<path d="M760 140 L690 100 L840 100 Z" fill="none" stroke="#d9a441" stroke-width="5"/>
<path d="M600 152 V230" stroke="#0b1f33" stroke-width="3"/>
<rect x="585" y="230" width="30" height="22" fill="#0b1f33"/>
<!-- 資材 -->
<rect x="110" y="520" width="90" height="40" fill="#8ea6bd"/><rect x="130" y="490" width="90" height="30" fill="#7690a8"/>
<path d="M300 174 L120 540 L520 560 Z" fill="#1769aa" opacity="0.14"/>
<path d="M300 174 L120 540 M300 174 L520 560" stroke="#1769aa" stroke-width="2" stroke-dasharray="6 6" opacity="0.6"/>

<g transform="translate(300 150) scale(1.5)">
  <path d="M-34 -6 L-62 -22 M34 -6 L62 -22 M-34 6 L-62 22 M34 6 L62 22" stroke="#0b1f33" stroke-width="5" stroke-linecap="round"/>
  <ellipse cx="-62" cy="-26" rx="22" ry="5" fill="#1769aa" opacity="0.85"/><circle cx="-62" cy="-22" r="4" fill="#0b1f33"/><ellipse cx="62" cy="-26" rx="22" ry="5" fill="#1769aa" opacity="0.85"/><circle cx="62" cy="-22" r="4" fill="#0b1f33"/><ellipse cx="-62" cy="18" rx="22" ry="5" fill="#1769aa" opacity="0.85"/><circle cx="-62" cy="22" r="4" fill="#0b1f33"/><ellipse cx="62" cy="18" rx="22" ry="5" fill="#1769aa" opacity="0.85"/><circle cx="62" cy="22" r="4" fill="#0b1f33"/>
  <rect x="-36" y="-14" width="72" height="28" rx="12" fill="#0b1f33"/>
  <rect x="-18" y="-8" width="36" height="8" rx="4" fill="#1769aa"/>
  <circle cx="0" cy="18" r="9" fill="#fff" stroke="#0b1f33" stroke-width="4"/>
  <circle cx="0" cy="18" r="3.5" fill="#1769aa"/>
</g>

</svg>
